# xmcd
#
# Track frame offsets:
#   150
#   32773
#   47313
#   87000
#   103399
#   133027
#   171265
#
# Disc length: 2692 seconds
#
# Revision: 0
# Processed by: cddbd v1.5.1PL0 Copyright (c) Steve Scherf et al.
# Submitted via: CD-Datenbank 4.*
#
DISCID=540a8207
DTITLE=John Mayall - Jazz Blues Fusion
DYEAR=1971
DGENRE=Blues
TTITLE0=Country Road
TTITLE1=Mess Around
TTITLE2=Good Time Boogie
TTITLE3=Change Your Ways
TTITLE4=Dry Throat
TTITLE5=Exercise In C Major
TTITLE6=Got To Be This Way
EXTD=
EXTT0=
EXTT1=
EXTT2=
EXTT3=
EXTT4=
EXTT5=
EXTT6=
PLAYORDER=
